/* XPM */
static char *ftp_archive[] = {
/* columns rows colors chars-per-pixel */
"15 13 5 1",
"  c black",
". c red",
"X c yellow",
"o c None",
"O c #808080",
/* pixels */
"ooooooooooooooo",
"o..oo.ooooooooo",
"o...o.ooOOOoooo",
"oo....oOXXXOOoo",
"ooo...OXXXOXXOo",
"o.....        o",
"ooooo XXX XXX o",
"ooooo XXX XXX o",
"ooooo         o",
"ooooo XXX XXX o",
"ooooo XXX XXX o",
"ooooo         o",
"ooooooooooooooo"
};
