/* XPM */
static char *ftp_link[] = {
/* columns rows colors chars-per-pixel */
"15 13 16 1",
"  c black",
". c #800000",
"X c #008000",
"o c #808000",
"O c navy",
"+ c #800080",
"@ c #008080",
"# c #808080",
"$ c #C0C0C0",
"% c red",
"& c green",
"* c yellow",
"= c blue",
"- c None",
"; c cyan",
": c gray100",
/* pixels */
"---------------",
"--           --",
"-- ::::::::: --",
"-- ::      : --",
"-- :::     : --",
"-- ::::    : --",
"-- :::     : --",
"-- ::   :  : --",
"-- :   ::: : --",
"-- :  :::::: --",
"-- ::::::::: --",
"--           --",
"---------------"
};
